PathFileType	4	(X/Y/Z)	C:/Users/opensim2020/Desktop/walking_exp_matlab/subject03_walking09_straight_01.trc																																																																																																																																											
DataRate	CameraRate	NumFrames	NumMarkers	Units	OrigDataRate	OrigDataStartFrame	OrigNumFrames																																																																																																																																							
100	100	8	47	mm	100	748	493																																																																																																																																							
Frame#	Time	LFHD			RFHD			LBHD			RBHD			C7			T10			CLAV			STRN			RBAK			LSHO			LUPA			LELB			LFRM			LWRA			LWRB			LFIN			RSHO			RUPA			RELB			RFRM			RWRA			RWRB			RFIN			LASI			RASI			LPSI			RPSI			LTHI			LKNE			LTIB			LANK			LHEE			LTOE			RTHI			RKNE			RTIB			RANK			RHEE			RTOE			*39			*40			*41			*42			*43			*44			*45			*46		
		X1	Y1	Z1	X2	Y2	Z2	X3	Y3	Z3	X4	Y4	Z4	X5	Y5	Z5	X6	Y6	Z6	X7	Y7	Z7	X8	Y8	Z8	X9	Y9	Z9	X10	Y10	Z10	X11	Y11	Z11	X12	Y12	Z12	X13	Y13	Z13	X14	Y14	Z14	X15	Y15	Z15	X16	Y16	Z16	X17	Y17	Z17	X18	Y18	Z18	X19	Y19	Z19	X20	Y20	Z20	X21	Y21	Z21	X22	Y22	Z22	X23	Y23	Z23	X24	Y24	Z24	X25	Y25	Z25	X26	Y26	Z26	X27	Y27	Z27	X28	Y28	Z28	X29	Y29	Z29	X30	Y30	Z30	X31	Y31	Z31	X32	Y32	Z32	X33	Y33	Z33	X34	Y34	Z34	X35	Y35	Z35	X36	Y36	Z36	X37	Y37	Z37	X38	Y38	Z38	X39	Y39	Z39	X40	Y40	Z40	X41	Y41	Z41	X42	Y42	Z42	X43	Y43	Z43	X44	Y44	Z44	X45	Y45	Z45	X46	Y46	Z46	X47	Y47	Z47
																																																																																																																																														
124	1.23	-839.95862	1621.35242	-1106.64648	-858.61151	1635.50476	-975.46442	-962.8385	1566.39478	-1115.302	-977.23053	1580.50232	-985.34424	-989.83624	1417.81787	-1046.59204	-1027.81323	1106.72461	-1039.33313	-869.42303	1340.07092	-1033.98035	-828.22186	1174.07788	-1030.76416	-1050.52002	1247.57129	-946.42926	-901.52325	1372.54761	-1193.99011	-908.78351	1174.04333	-1262.14453	-901.6546	1051.12036	-1272.51636	-875.87384	923.01678	-1266.21765	-863.03876	805.2572	-1231.87048	-876.82886	810.13385	-1286.00256	-863.13953	727.29279	-1272.99438	-920.83038	1368.47705	-879.09283	-903.48926	1146.58325	-805.04376	-876.83893	1036.88159	-792.16638	-845.47101	903.43878	-790.89484	-805.48468	812.3219	-827.33093	-833.96942	803.8172	-782.48212	-803.82935	735.88239	-793.96552	-854.40839	941.30853	-1141.83252	-877.15875	935.93262	-904.83289	-1020.18018	969.81525	-1107.26453	-1032.22485	970.17566	-957.91205	-900.85016	641.83807	-1183.73816	-891.00775	463.64307	-1139.67017	-924.06012	272.42264	-1143.31628	-922.91516	63.78089	-1101.89063	-962.31067	29.02057	-1067.82471	-769.18591	29.68763	-1080.01465	-919.38934	639.0545	-856.08368	-884.68976	461.64108	-870.42432	-1024.23608	332.29776	-864.18158	-1182.07129	183.77124	-901.95599	-1233.93384	188.13533	-957.23633	-1114.84412	57.46626	-910.62799	NaN	NaN	NaN	NaN	NaN	NaN	NaN	NaN	NaN	NaN	NaN	NaN	NaN	NaN	NaN	NaN	NaN	NaN	NaN	NaN	NaN	NaN	NaN	NaN
125	1.24	-835.35229	1621.50574	-1107.28662	-854.04926	1635.69788	-976.02118	-958.39496	1566.75403	-1115.89368	-972.72021	1580.87024	-986.00305	-985.57513	1418.16748	-1047.44458	-1023.53064	1106.98828	-1040.37708	-865.44147	1340.21399	-1034.24585	-823.99774	1174.33594	-1031.40747	-1046.59705	1247.82288	-947.52759	-896.8017	1372.92822	-1194.47754	-901.82996	1174.62756	-1263.08899	-892.91486	1051.89014	-1273.70117	-865.49872	924.17706	-1267.75439	-851.42889	806.32813	-1234.14612	-864.83521	811.41345	-1287.95361	-849.62909	728.89923	-1275.30078	-917.28235	1368.73633	-879.58234	-900.05139	1146.82397	-805.64014	-873.39856	1037.17615	-792.65002	-841.91931	903.81555	-790.90295	-801.6261	812.66449	-827.35913	-830.32135	804.15387	-782.68628	-800.16602	736.3396	-793.90735	-850.07245	941.38098	-1142.74133	-872.72009	936.58551	-905.65192	-1015.73041	969.8916	-1108.14893	-1027.82129	970.45557	-958.86469	-898.05518	641.89355	-1184.28699	-888.59137	463.50708	-1140.01807	-922.63446	272.4592	-1143.5177	-923.15009	63.76977	-1102.01184	-962.37073	29.02724	-1067.84595	-769.22906	29.66159	-1079.99084	-911.59198	639.72485	-857.23822	-874.04559	462.84473	-871.86737	-1013.07239	333.07477	-865.63171	-1170.59949	184.21863	-903.16089	-1222.25085	187.16429	-958.79364	-1101.15808	59.09915	-909.72247	NaN	NaN	NaN	NaN	NaN	NaN	NaN	NaN	NaN	NaN	NaN	NaN	NaN	NaN	NaN	NaN	NaN	NaN	NaN	NaN	NaN	NaN	NaN	NaN
126	1.25	-830.82001	1621.62427	-1107.66077	-849.40399	1635.89001	-976.65277	-953.94751	1567.19128	-1116.46118	-968.29041	1581.32361	-986.57544	-981.33356	1418.4165	-1048.21497	-1019.26093	1107.29224	-1041.45178	-861.12299	1340.70789	-1034.84326	-819.97656	1174.65796	-1031.75671	-1042.67041	1248.07434	-948.55566	-892.16711	1373.37463	-1194.94373	-894.93915	1175.41602	-1263.94995	-884.30902	1052.90845	-1274.78796	-855.15198	925.53125	-1269.1947	-839.73254	807.85834	-1235.81982	-852.7337	812.88818	-1289.79846	-836.11847	730.71649	-1277.63074	-913.66046	1368.99353	-880.32257	-896.61761	1147.14661	-806.21973	-870.0719	1037.57349	-793.0636	-838.3606	904.19	-791.40167	-797.75684	813.13824	-827.31787	-826.73334	804.60199	-782.91522	-796.39709	736.75684	-794.07745	-845.78442	941.46832	-1143.58044	-868.28998	937.29474	-906.44214	-1011.31824	969.97455	-1109.00452	-1023.41211	970.79834	-959.716	-894.78625	641.84088	-1184.62573	-886.2359	463.18265	-1140.10217	-921.27533	272.53674	-1143.65283	-923.2915	63.56852	-1101.8866	-962.15454	29.29666	-1067.62451	-769.28192	29.68035	-1079.98816	-903.79913	640.4209	-858.30078	-863.7616	464.10394	-873.35632	-1001.73383	333.50253	-867.16577	-1157.92139	183.35469	-904.46759	-1210.1687	185.31839	-960.05664	-1086.35364	60.14072	-909.31873	NaN	NaN	NaN	NaN	NaN	NaN	NaN	NaN	NaN	NaN	NaN	NaN	NaN	NaN	NaN	NaN	NaN	NaN	NaN	NaN	NaN	NaN	NaN	NaN
127	1.26	-826.3418	1621.83337	-1108.11145	-845.03381	1636.10254	-976.97864	-949.57935	1567.66736	-1116.97046	-963.96362	1581.78564	-987.08582	-977.29285	1418.8396	-1048.95837	-1014.94641	1107.57129	-1042.47412	-857.16217	1340.90881	-1035.09521	-815.86163	1174.99683	-1032.18298	-1038.89526	1248.38403	-949.495	-887.58313	1373.87402	-1195.35889	-888.13641	1176.34204	-1264.80786	-875.67108	1054.02039	-1275.85168	-844.68573	927.08887	-1270.63489	-827.85162	809.54095	-1237.5238	-840.60034	814.60126	-1291.61353	-822.48633	732.77637	-1279.79846	-910.10388	1369.35974	-880.90027	-893.37787	1147.56934	-806.7193	-866.78497	1037.98682	-793.48035	-834.92352	904.69531	-791.45428	-793.89471	813.67242	-827.50635	-823.19171	805.06317	-783.18335	-792.65515	737.2616	-794.18469	-841.34808	941.60712	-1144.66101	-863.77521	938.08514	-907.30774	-1006.9538	970.06128	-1109.73889	-1018.98334	971.23041	-960.50562	-891.47339	641.7652	-1184.84253	-883.47253	463.44061	-1140.52612	-919.96411	272.59555	-1143.79675	-922.85876	63.99551	-1101.85767	-962.33502	29.18996	-1067.75806	-769.23169	29.70047	-1079.96509	-895.38861	641.03925	-859.85376	-853.67334	465.39542	-874.90485	-990.38306	333.69354	-868.68292	-1144.94482	181.84077	-905.60516	-1197.57617	182.6777	-961.01605	-1070.73035	60.4799	-909.64233	NaN	NaN	NaN	NaN	NaN	NaN	NaN	NaN	NaN	NaN	NaN	NaN	NaN	NaN	NaN	NaN	NaN	NaN	NaN	NaN	NaN	NaN	NaN	NaN
128	1.27	-821.85577	1622.09314	-1108.53735	-840.59363	1636.30237	-977.38043	-945.23486	1568.20459	-1117.42529	-959.65411	1582.28149	-987.55133	-973.10638	1419.16455	-1049.6665	-1010.64124	1107.86951	-1043.49829	-852.90924	1341.34778	-1035.70715	-811.56604	1175.30103	-1033.01697	-1034.948	1248.64795	-950.48047	-883.0473	1374.40173	-1195.7489	-881.44897	1177.28882	-1265.63916	-867.02014	1055.3125	-1277.09082	-834.33087	928.79761	-1271.85754	-815.6825	811.54572	-1239.31482	-828.37781	816.52673	-1293.25098	-808.90515	735.02191	-1281.81372	-906.6543	1369.76172	-881.45093	-890.15686	1148.02039	-807.22955	-863.58875	1038.45532	-793.8963	-831.50165	905.22589	-791.74066	-790.03815	814.36414	-827.61035	-819.6225	805.59167	-783.4649	-788.94733	737.84613	-794.30664	-837.08289	941.65747	-1145.52295	-859.34009	938.90063	-908.09723	-1002.64441	970.21149	-1110.38782	-1014.56512	971.67438	-961.17194	-888.07288	641.6911	-1185.07947	-881.26105	463.02783	-1140.55151	-918.58966	272.69992	-1143.94934	-922.81189	64.07526	-1101.86914	-962.34613	29.17079	-1067.74536	-769.27881	29.62439	-1079.95508	-887.58252	641.9837	-860.88611	-843.79907	466.77576	-876.49091	-978.88477	333.54181	-870.23889	-1131.22644	179.39716	-906.8418	-1184.32092	179.19392	-961.94189	-1054.38782	60.01399	-910.65698	NaN	NaN	NaN	NaN	NaN	NaN	NaN	NaN	NaN	NaN	NaN	NaN	NaN	NaN	NaN	NaN	NaN	NaN	NaN	NaN	NaN	NaN	NaN	NaN
129	1.28	-817.45135	1622.29541	-1108.87231	-836.19666	1636.49011	-977.71802	-940.91522	1568.71582	-1117.88721	-955.39124	1582.73706	-987.99701	-969.01038	1419.43945	-1050.31616	-1006.37659	1108.15027	-1044.52344	-848.82587	1341.70374	-1036.17249	-807.53473	1175.63	-1033.46594	-1030.86279	1248.82397	-951.55841	-878.59912	1374.98425	-1196.10352	-874.85724	1178.27026	-1266.41626	-858.65753	1056.50244	-1277.95972	-823.96802	930.5946	-1273.07703	-803.38782	813.73352	-1240.93604	-816.25098	818.55377	-1294.75403	-795.43829	737.36926	-1283.75232	-903.14362	1370.13843	-882.0387	-886.99463	1148.48035	-807.74371	-860.45917	1038.94226	-794.29346	-828.13477	905.79199	-792.12323	-786.48706	815.05078	-827.77289	-816.0863	806.09937	-783.80945	-785.44873	738.18964	-794.62976	-832.90216	941.6861	-1146.37915	-854.85303	939.66766	-908.92316	-998.3963	970.30963	-1110.94507	-1010.11511	972.13098	-961.81024	-884.54749	641.54181	-1185.28149	-878.57642	463.30386	-1140.97876	-917.32178	272.76678	-1144.11292	-922.80945	64.15178	-1101.81995	-962.38641	29.27414	-1067.73218	-769.29913	29.53912	-1079.94617	-880.0011	642.98206	-861.71423	-834.0495	468.16885	-878.16327	-967.23846	332.99368	-871.69391	-1117.00037	176.42004	-907.83008	-1170.48621	174.93488	-962.83185	-1037.42944	58.87177	-912.20898	NaN	NaN	NaN	NaN	NaN	NaN	NaN	NaN	NaN	NaN	NaN	NaN	NaN	NaN	NaN	NaN	NaN	NaN	NaN	NaN	NaN	NaN	NaN	NaN
130	1.29	-813.06287	1622.48792	-1109.11462	-831.88983	1636.63293	-977.98523	-936.64441	1569.16016	-1118.30713	-951.18579	1583.13379	-988.40161	-964.94287	1419.73804	-1050.98608	-1002.09845	1108.39832	-1045.5509	-844.74908	1341.98181	-1036.50183	-803.48895	1175.94775	-1033.79565	-1027.02625	1249.03149	-952.53589	-874.18323	1375.50708	-1196.42798	-868.34973	1179.30017	-1267.18799	-850.25146	1057.88757	-1279.0188	-813.67999	932.48761	-1274.18018	-791.50659	815.77838	-1242.25647	-804.17175	820.65179	-1296.14429	-781.92548	739.82977	-1285.40063	-899.70306	1370.49719	-882.52679	-884.24933	1149.01685	-808.08734	-857.37262	1039.36609	-794.63733	-824.80933	906.27167	-792.38672	-782.73285	815.68018	-827.98737	-812.61133	806.5957	-784.17853	-781.87036	738.73761	-794.96478	-828.745	941.69617	-1147.27344	-850.32605	940.40521	-909.75586	-994.0744	970.38739	-1111.45886	-1005.66125	972.49847	-962.31836	-881.22711	641.32465	-1185.65601	-876.35162	463.24554	-1141.09949	-916.11096	272.79211	-1144.22522	-922.76758	64.20046	-1101.81458	-962.40729	29.29981	-1067.72815	-769.34235	29.55725	-1079.95605	-872.47864	643.98596	-862.50177	-824.55914	469.62311	-879.77972	-955.38898	332.04694	-873.15326	-1102.40161	172.62187	-909.17828	-1156.16577	170.0594	-963.64008	-1019.72412	57.33228	-914.16241	NaN	NaN	NaN	NaN	NaN	NaN	NaN	NaN	NaN	NaN	NaN	NaN	NaN	NaN	NaN	NaN	NaN	NaN	NaN	NaN	NaN	NaN	NaN	NaN
131	1.3	-808.73926	1622.68091	-1109.36804	-827.64532	1636.76355	-978.17212	-932.38135	1569.56824	-1118.69373	-946.96155	1583.43579	-988.80029	-960.85309	1419.93225	-1051.63489	-997.92346	1108.52832	-1046.49951	-840.44238	1342.39648	-1036.94092	-799.46106	1176.1781	-1034.26208	-1023.22723	1249.19312	-953.53717	-869.76758	1376.0437	-1196.76306	-861.94226	1180.28271	-1267.97852	-841.92505	1059.12073	-1279.98572	-803.48425	934.39441	-1275.24097	-779.54163	818.04437	-1243.51221	-792.1098	822.81372	-1297.33435	-768.48547	742.40601	-1286.86023	-896.27502	1370.80273	-883.03638	-881.1496	1149.38159	-808.55231	-854.37415	1039.74512	-795.02478	-821.50354	906.73297	-792.73438	-779.11798	816.26459	-828.25287	-809.09131	807.03461	-784.59448	-778.09222	739.28888	-795.27856	-824.48926	941.73309	-1148.20117	-845.83032	941.07593	-910.53912	-989.88806	970.39215	-1111.88354	-1001.26392	972.862	-962.79443	-877.83759	641.16565	-1185.755	-874.13855	463.01715	-1141.28345	-914.86938	272.86771	-1144.32336	-922.6889	64.49284	-1102.07458	-962.39832	29.3199	-1067.74585	-769.33228	29.54889	-1079.93433	-864.45862	644.78699	-863.66418	-815.19116	471.05304	-881.35968	-943.44659	330.72717	-874.57178	-1087.14514	168.1787	-910.51971	-1141.20044	164.29723	-964.59723	-1001.22925	55.54803	-916.36517	NaN	NaN	NaN	NaN	NaN	NaN	NaN	NaN	NaN	NaN	NaN	NaN	NaN	NaN	NaN	NaN	NaN	NaN	NaN	NaN	NaN	NaN	NaN	NaN
